<svg xmlns="http://www.w3.org/2000/svg" version="1.2" viewBox="2396.39 30.67 451.08 448.91">
	<style>
		.s0 { fill: #fdfdfd } 
	</style>
	<path class="s0" d="m2836.2 325.73c-5.06 14.99-11.38 29.21-19.42 42.62-6.68 11.14-14.05 21.79-22.49 31.71-12.32 14.46-26.13 27.2-41.69 38.13-10.06 7.07-20.55 13.39-31.56 18.83-12.78 6.3-26.02 11.5-39.89 14.85q-14.3 3.46-28.8 5.97c-5.42 0.94-10.99 1.09-16.51 1.33-6.8 0.29-13.62 0.4-20.43 0.41-12.86 0.01-25.56-1.77-38.16-4.14-17.56-3.31-34.39-8.94-50.56-16.6-16.69-7.9-32.38-17.41-46.59-29.23-6.62-5.5-13.24-11.08-19.23-17.23-13.63-14-25.45-29.39-35.01-46.52-10.41-18.62-18.5-38.14-23.55-58.84-1.93-7.92-3-16.06-4.24-24.13-1.75-11.36-1.83-22.82-1.58-34.28 0.33-15.14 2.09-30.13 5.69-44.84 3.66-14.97 8.74-29.43 15.23-43.46 8.27-17.86 18.94-34.07 31.51-49.12 11.85-14.2 25.32-26.67 40.41-37.32 7.22-5.1 14.79-9.74 22.36-14.33 12.59-7.63 26.16-13.16 40.08-17.84 11.92-4.01 24.16-6.69 36.58-8.65 14.71-2.33 29.55-2.68 44.38-2.18 13.89 0.46 27.62 2.55 41.15 5.72 15.02 3.51 29.46 8.61 43.44 15.18 13.92 6.56 27.04 14.31 39.4 23.5 10.21 7.59 19.95 15.7 28.67 24.89 11.35 11.95 21.57 24.85 30.02 39.08 11.18 18.82 19.65 38.79 25.21 59.95 2.99 11.4 5.31 22.95 5.88 34.76 0.47 9.95 1.16 19.92 0.92 29.86-0.33 13.24-1.82 26.42-4.97 39.33-1.83 7.53-4.09 14.95-6.25 22.59zm-140.73-36.48c0.17 12.55 0.15 25.11 0.58 37.65 0.35 9.9 1.06 19.79 1.95 29.65 1.18 12.93 3.43 25.69 7.58 38.04 1.24 3.7 2.86 7.28 4.38 11.1 16.98-10.05 31.81-21.88 44.38-36.45 12.01-13.92 22.15-29.06 29.68-45.89 9.32-20.86 14.19-42.72 14.71-65.53 0.24-10.45-0.53-20.86-2.17-31.2-3.26-20.58-10.21-39.88-20.45-57.94-10.71-18.89-24.33-35.45-41.22-49.23-12.69-10.35-26.12-19.57-41.28-25.92-8.21-3.45-16.64-6.47-25.12-9.19-12.25-3.94-24.98-5.6-37.77-6.2-15.78-0.73-31.42 0.76-46.88 4.23-17.52 3.93-33.99 10.45-49.39 19.64-15.25 9.1-28.91 20.12-40.84 33.37-7 7.77-13.47 15.88-19.11 24.67-2.35 3.66-4.48 7.45-7.13 11.88 8.56 2.63 16.51 5.46 24.65 7.49 13.62 3.39 27.49 5.37 41.51 6.24 10.49 0.66 20.98 1.66 31.47 1.71 44.08 0.19 88.16 0.08 132.24 0.09 0.89 0 1.77 0 2.99 0-0.39 4.4-0.81 8.49-1.1 12.59-0.73 10.56-1.49 21.12-2.08 31.68-0.55 9.85-1.01 19.7-1.29 29.56-0.25 9.15-0.21 18.31-0.29 27.96zm-238.88 23.39c5.95 16.79 14.64 32.08 25.37 46.64 42.89-40.09 85.61-80.02 128.33-119.95q-0.18-0.34-0.35-0.68-1.7 0.01-3.4 0c-22.77-0.24-45.56 0.78-68.3-1.11-10.51-0.88-21.05-1.69-31.49-3.15-14.65-2.05-29.14-5.01-43.18-9.82-4.53-1.55-9.04-3.15-13.57-4.74-5.72 22.8-5.95 60.16 6.59 92.81zm82.23 96.26q2.31 1.21 4.61 2.42c12.62 6.55 25.91 11.25 39.75 14.46 12.13 2.82 24.41 4.29 36.86 4.18 5.15-0.04 10.32 0.08 15.43-0.39 6.4-0.59 12.76-1.71 19.13-2.61 1.68-0.24 2.47-0.87 1.78-2.83-4.11-11.85-7.04-24.02-8.83-36.42-1.57-10.83-3.04-21.68-3.99-32.57-0.9-10.39-1.27-20.83-1.51-31.26-0.24-10.82-0.05-21.66-0.04-32.48q0-6.41 0-12.9c-41.08 39.14-82.26 78.37-123.84 117.98 7.02 4.22 13.68 8.22 20.65 12.42z"/>
</svg>